<svg width="100" height="100" viewBox="0 0 100 100" fill="none" xmlns="http://www.w3.org/2000/svg"><path d="M15.532 73.8192C15.0053 72.257 14.431 71.6487 14.431 69.0279H85.6724C85.6724 72.0231 85.0982 72.257 84.5715 73.8192C83.7353 76.3678 82.5291 78.7673 80.9531 81.0177C79.4092 83.241 77.5437 85.2745 75.3566 87.1182C73.1695 88.9618 70.7411 90.548 68.0715 91.8765C65.4341 93.1779 62.5876 94.1947 59.532 94.9267C56.4765 95.6317 53.3083 95.9841 50.0276 95.9841C46.7469 95.9841 43.5788 95.6317 40.5232 94.9267C37.4998 94.1947 34.6533 93.1779 31.9837 91.8765C29.3463 90.548 26.934 88.9618 24.7469 87.1182C22.5597 85.2745 20.6782 83.241 19.1021 81.0177C17.5583 78.7673 16.3682 76.3678 15.532 73.8192Z" fill="#001120"/><rect x="0.103455" y="4.01587" width="99.8966" height="65.012" rx="12.6853" fill="#001642"/><circle cx="25.474" cy="37.3147" r="11.0996" fill="white"/><circle cx="74.6294" cy="37.3147" r="11.0996" fill="white"/></svg>