<svg className="mr-4 h-10 w-10 translate-y-[1px]" viewBox="0 0 100 100" fill="none" xmlns="http://www.w3.org/2000/svg"><style>#a{fill:#dbeafe;}#b{fill:#bfdbfe;}</style><path fill-rule="evenodd" d="M15.532 73.8192C15.0053 72.257 14.431 71.6486 14.431 69.0279H85.6724C85.6724 72.023 85.0982 72.257 84.5715 73.8192C83.7353 76.3678 82.5291 78.7673 80.9531 81.0177C79.4092 83.241 77.5437 85.2744 75.3566 87.1181C73.1695 88.9618 70.7411 90.5479 68.0715 91.8765C65.4341 93.1779 62.5876 94.1946 59.532 94.9267C56.4765 95.6316 53.3083 95.9841 50.0276 95.9841C46.7469 95.9841 43.5788 95.6316 40.5232 94.9267C37.4998 94.1946 34.6533 93.1779 31.9837 91.8765C29.3463 90.5479 26.934 88.9618 24.7469 87.1181C22.5597 85.2744 20.6782 83.241 19.1021 81.0177C17.5583 78.7673 16.3682 76.3678 15.532 73.8192Z" style="transform: translateY(-2px);" id="b"/><path fill-rule="evenodd" d="M0 16.7011C0 9.69526 5.78291 4.01587 12.7888 4.01587H87.3148C94.3207 4.01587 100 9.69526 100 16.7011V56.3426C100 63.3485 94.3207 69.0279 87.3148 69.0279H12.7888C5.78292 69.0279 0.103516 63.3485 0.103516 56.3426V16.7011ZM36.5737 37.3147C36.5737 43.4449 31.6042 48.4143 25.4741 48.4143C19.3439 48.4143 14.3745 43.4449 14.3745 37.3147C14.3745 31.1846 19.3439 26.2151 25.4741 26.2151C31.6042 26.2151 36.5737 31.1846 36.5737 37.3147ZM74.6295 48.4143C80.7597 48.4143 85.7291 43.4449 85.7291 37.3147C85.7291 31.1846 80.7597 26.2151 74.6295 26.2151C68.4994 26.2151 63.5299 31.1846 63.5299 37.3147C63.5299 43.4449 68.4994 48.4143 74.6295 48.4143Z" id="a"/></svg>