<svg width="100" height="100" viewBox="0 0 100 100" fill="none" xmlns="http://www.w3.org/2000/svg"><g clip-path="url(#clip0_2_36)"><path d="M15.532 73.8192C15.0053 72.257 14.431 71.6487 14.431 69.0279H85.6724C85.6724 72.0231 85.0982 72.257 84.5715 73.8192C83.7353 76.3678 82.5291 78.7673 80.9531 81.0177C79.4092 83.241 77.5437 85.2745 75.3566 87.1182C73.1695 88.9618 70.7411 90.548 68.0715 91.8765C65.4341 93.1779 62.5876 94.1947 59.532 94.9267C56.4765 95.6317 53.3083 95.9841 50.0276 95.9841C46.7469 95.9841 43.5788 95.6317 40.5232 94.9267C37.4998 94.1947 34.6533 93.1779 31.9837 91.8765C29.3463 90.548 26.934 88.9618 24.7469 87.1182C22.5597 85.2745 20.6782 83.241 19.1021 81.0177C17.5583 78.7673 16.3682 76.3678 15.532 73.8192Z" fill="#D8D8D8"/><path fill-rule="evenodd" clip-rule="evenodd" d="M0.103455 16.7011C0.103455 9.69526 5.78285 4.01587 12.7887 4.01587H87.3147C94.3206 4.01587 100 9.69526 100 16.7011V56.3426C100 63.3485 94.3206 69.0279 87.3147 69.0279H12.7887C5.78286 69.0279 0.103455 63.3485 0.103455 56.3426V16.7011ZM36.5736 37.3147C36.5736 43.4449 31.6042 48.4143 25.474 48.4143C19.3439 48.4143 14.3744 43.4449 14.3744 37.3147C14.3744 31.1846 19.3439 26.2151 25.474 26.2151C31.6042 26.2151 36.5736 31.1846 36.5736 37.3147ZM74.6295 48.4143C80.7596 48.4143 85.7291 43.4449 85.7291 37.3147C85.7291 31.1846 80.7596 26.2151 74.6295 26.2151C68.4993 26.2151 63.5298 31.1846 63.5298 37.3147C63.5298 43.4449 68.4993 48.4143 74.6295 48.4143Z" fill="white"/></g><defs><clipPath id="clip0_2_36"><rect width="100" height="100" fill="white"/></clipPath></defs></svg>